<?xml version="1.0" standalone="no"?>
<!DOCTYPE svg PUBLIC "-//W3C//DTD SVG 20010904//EN"
 "http://www.w3.org/TR/2001/REC-SVG-20010904/DTD/svg10.dtd">
<svg version="1.0" xmlns="http://www.w3.org/2000/svg"
 width="324.000000pt" height="324.000000pt" viewBox="0 0 324.000000 324.000000"
 preserveAspectRatio="xMidYMid meet">
<metadata>
Created by potrace 1.14, written by Peter Selinger 2001-2017
</metadata>
<g transform="translate(0.000000,324.000000) scale(0.100000,-0.100000)"
fill="#000000" stroke="none">
<path d="M1985 3233 c-135 -18 -287 -63 -401 -121 -158 -79 -240 -142 -356
-276 -70 -80 -99 -124 -147 -221 -101 -205 -138 -348 -148 -565 -10 -219 36
-425 141 -641 20 -41 46 -89 57 -106 l21 -33 -63 -77 c-34 -43 -97 -115 -138
-160 -42 -44 -100 -109 -130 -142 l-53 -61 -73 0 c-64 0 -76 -3 -111 -29 -80
-60 -440 -426 -459 -466 -29 -63 -31 -133 -5 -186 48 -96 124 -149 212 -149
111 0 133 15 405 286 l171 171 7 56 c4 31 4 68 1 82 -6 22 18 49 201 235 114
115 210 210 213 210 3 0 35 -20 71 -44 169 -117 284 -166 488 -208 130 -27
159 -29 261 -24 131 6 291 35 383 68 92 33 180 83 297 169 109 81 310 277 310
302 0 17 -42 61 -116 123 -75 62 -76 62 -141 -13 -128 -147 -153 -169 -265
-244 -129 -85 -214 -119 -352 -138 -204 -29 -423 4 -557 83 -24 14 -57 33 -74
42 -105 59 -220 171 -284 277 -140 232 -187 440 -156 694 20 175 63 294 162
451 35 55 142 176 179 202 95 67 179 117 244 146 216 95 532 82 760 -32 76
-37 245 -179 307 -256 72 -90 71 -90 110 -84 39 6 159 89 168 116 3 10 -1 32
-9 48 -17 33 -149 180 -204 227 -222 192 -505 297 -785 294 -62 -1 -125 -4
-142 -6z"/>
<path d="M2043 2731 c-24 -15 -97 -129 -309 -483 -153 -255 -282 -479 -288
-499 -14 -54 7 -97 58 -120 38 -17 77 -19 601 -19 524 0 563 2 601 19 51 23
72 66 58 120 -6 20 -135 244 -288 499 -292 486 -303 502 -371 502 -16 0 -44
-9 -62 -19z m108 -287 c56 -29 61 -61 34 -225 -13 -79 -25 -157 -27 -174 -3
-28 -6 -30 -50 -33 -46 -3 -47 -2 -52 30 -3 18 -16 96 -29 173 -27 163 -23
195 26 225 39 24 59 25 98 4z m-5 -499 c78 -32 77 -138 -2 -171 -52 -22 -102
-3 -127 48 -16 33 -17 40 -3 73 10 23 26 41 48 50 42 18 42 18 84 0z"/>
</g>
</svg>
